PathFileType	3	(X/Y/Z)	D:\minhoCalibration\240510\subject2_KPNP\preferred\preferred05.trc
DataRate	CameraRate	NumFrames	NumMarkers	Units	OrigDataRate	OrigDataStartFrame	OrigNumFrames
200.0	200.0	30	10	mm	200.0	888	244	
Frame#	Time	Left_Ankle_Outer1			Left_Ankle_Inner1			Left_Knee_Outer1			Left_Knee_Inner1			Left_Wrist1			Right_Wrist1			Right_Knee_Inner1			Right_Knee_Outer1			Right_Ankle_Inner1			Right_Ankle_Outer1			
		X1	Y1	Z1	X2	Y2	Z2	X3	Y3	Z3	X4	Y4	Z4	X5	Y5	Z5	X6	Y6	Z6	X7	Y7	Z7	X8	Y8	Z8	X9	Y9	Z9	X10	Y10	Z10	
888	4.43	-558.32703	112.94769	-746.42322	-552.9281	120.54964	-691.50226	-405.51657	533.18518	-804.35083	-394.91992	514.15002	-708.73956	-514.93964	943.05017	-856.07324	-501.16492	1173.2406	-592.45288	-333.72418	1003.927	-221.5722	-319.05606	1087.3966	-243.53577	-369.37793	1004.392	186.30482	-354.61792	1101.7927	185.15797
889	4.435	-557.94556	113.7805	-745.79742	-553.24506	121.04034	-690.79559	-404.58368	535.07568	-801.28107	-396.56653	515.6532	-705.71265	-514.25824	942.69141	-853.4082	-504.45975	1174.2194	-590.05487	-333.33264	1006.6339	-223.33261	-328.29617	1094.7351	-242.00343	-370.99115	1000.1507	185.5336	-354.81021	1097.051	186.76883
890	4.44	-557.96753	114.55371	-744.99615	-553.19897	121.34419	-689.99438	-403.21072	537.00714	-798.58722	-398.52994	517.03485	-702.68378	-513.84937	942.22339	-850.31995	-506.89233	1175.0605	-587.94989	-330.15903	1010.1392	-224.79407	-338.55118	1098.5695	-238.40318	-369.50046	993.79181	183.36681	-356.73785	1091.306	188.72
891	4.445	-558.17664	115.11125	-743.63068	-553.68036	122.83163	-686.63257	-402.19272	538.63177	-795.64734	-400.68536	518.18561	-699.68103	-513.75446	941.2771	-848.16528	-508.6015	1175.9633	-586.61755	-323.88797	1013.9818	-226.92247	-346.3432	1099.7192	-235.55788	-367.65207	986.71277	184.31032	-359.20984	1084.0304	189.94116
892	4.45	-558.6861	115.40625	-741.85248	-553.21356	122.06596	-686.77582	-401.79877	539.46051	-792.90179	-403.06561	519.07581	-696.72528	-514.22229	940.41504	-845.93018	-509.8526	1177.0044	-586.34625	-318.68802	1016.6308	-230.73354	-350.4296	1099.4069	-233.68207	-363.75058	979.09137	185.62563	-360.37103	1076.9911	191.42659
893	4.455	-559.23749	115.78813	-739.92969	-553.86755	121.22108	-685.63226	-401.37955	540.49982	-790.54669	-405.49405	519.69305	-693.77039	-514.37988	939.79034	-843.80957	-510.62375	1178.4041	-586.58154	-315.32745	1018.5377	-231.80891	-353.5029	1097.6802	-231.76265	-359.71362	971.17383	186.50049	-360.95782	1069.9701	193.34546
894	4.46	-559.55072	115.81083	-737.55786	-553.93872	121.4178	-683.63599	-401.58691	540.88519	-788.59296	-407.82349	519.99988	-691.06561	-514.24109	939.35034	-841.81549	-511.04593	1180.0166	-587.1308	-313.3208	1017.7369	-229.48483	-356.40741	1095.1952	-229.30873	-354.98022	964.78259	186.60698	-360.44601	1062.9	194.73195
895	4.465	-560.04614	116.00196	-735.45441	-554.41943	123.14167	-678.88245	-401.91925	541.23718	-786.7652	-409.96918	520.11267	-688.54419	-513.19409	939.48773	-841.1947	-511.2359	1181.4957	-587.64673	-313.35458	1015.1366	-225.70673	-358.54031	1092.0588	-226.33658	-351.20407	958.64722	186.89375	-359.66861	1056.1875	195.87025
896	4.47	-560.42719	116.14681	-733.47729	-554.27234	121.31982	-679.75391	-402.41245	540.80914	-785.34198	-411.67938	519.98462	-686.38702	-512.19073	939.76721	-840.82397	-511.30621	1182.656	-587.84546	-315.30685	1010.9453	-221.74065	-360.03323	1088.5289	-223.27887	-347.71396	952.57965	187.66336	-359.07953	1049.7129	196.90211
897	4.475	-560.90955	116.47888	-732.06079	-553.94928	122.19632	-677.33728	-402.51544	540.35559	-784.01636	-412.81021	519.7334	-684.60425	-511.24323	940.24628	-840.94568	-511.23004	1183.2142	-587.7655	-318.97238	1005.7476	-218.48141	-361.22784	1084.9639	-220.51364	-344.96262	945.58643	188.15829	-359.49564	1043.0254	198.32303
898	4.48	-560.81323	116.40209	-730.64264	-554.49329	121.04616	-677.17322	-402.35687	539.61981	-782.70325	-413.28406	519.42621	-683.29663	-510.20926	941.31885	-840.99817	-511.1788	1183.1554	-587.39417	-323.63718	1000.6562	-216.41966	-362.17551	1081.5219	-218.06812	-343.32547	938.61139	188.59982	-360.76062	1035.6086	199.53461
899	4.485	-561.09918	116.62848	-730.04846	-554.98999	122.75156	-673.40479	-401.60281	539.22577	-781.51007	-413.14279	519.11407	-682.51709	-509.18643	942.50543	-841.32391	-511.22348	1182.5668	-586.71765	-328.23456	995.77972	-215.51897	-363.02817	1078.224	-215.79279	-342.68228	931.25427	188.66046	-362.07272	1027.7449	200.60616
900	4.49	-560.92041	116.43557	-729.63715	-554.70154	121.49154	-675.06177	-401.41824	538.05792	-780.30707	-412.46902	518.77081	-682.06512	-508.09259	943.85962	-841.76355	-511.47336	1181.7397	-585.73285	-333.10602	991.56903	-214.95381	-363.83218	1075.1555	-213.52725	-342.81058	923.27338	188.28249	-362.63504	1019.1748	201.06665
901	4.495	-560.79285	116.28447	-729.82782	-555.35254	121.34138	-674.51154	-400.7182	537.51538	-779.1889	-411.52008	518.47168	-681.9035	-507.13654	944.97058	-841.53278	-512.01807	1180.5852	-584.44263	-336.50946	987.7265	-214.67357	-364.49249	1072.2067	-211.3575	-343.53998	914.86969	187.46375	-363.49286	1010.7262	201.90135
902	4.5	-560.54523	116.1058	-730.43195	-555.49078	120.20245	-676.39679	-400.28452	536.74188	-778.41595	-410.48837	518.09662	-681.86969	-505.14935	946.6684	-842.78168	-512.63605	1179.1066	-583.06372	-339.18015	984.17236	-214.239	-365.05954	1069.3057	-209.46388	-344.21738	906.62683	185.86702	-364.45114	1001.3472	202.07373
903	4.505	-560.3891	116.02302	-731.51935	-556.26624	120.78705	-675.40582	-400.03027	536.21753	-777.72412	-409.47519	517.72461	-681.94305	-503.38333	948.02875	-843.09161	-513.48749	1177.5255	-581.7403	-341.24057	980.75195	-213.56642	-365.79959	1066.5618	-208.07564	-346.01318	896.62421	183.86629	-365.71896	991.28284	202.19969
904	4.51	-559.84723	115.6313	-732.6864	-556.11316	119.6139	-678.36139	-399.51559	536.04492	-777.43604	-408.61823	517.20312	-682.00781	-501.3783	949.41418	-843.80579	-514.69659	1175.9833	-580.50159	-342.88885	977.40027	-212.97354	-367.38229	1063.7249	-206.92592	-349.97784	885.23492	181.67191	-367.25073	980.76544	202.33188
905	4.515	-559.46698	115.40273	-734.13513	-556.59796	118.71599	-680.33466	-399.86877	535.25555	-776.98755	-407.99921	516.61548	-682.09644	-499.06931	950.81598	-844.52039	-516.46393	1174.7661	-579.21216	-343.97067	974.05615	-212.67612	-369.1954	1060.5548	-206.42946	-351.91919	874.56622	178.00508	-369.8309	969.87372	202.24849
906	4.52	-559.20166	115.34988	-735.84717	-556.68713	119.04295	-681.03735	-399.66235	534.63367	-777.12506	-407.56329	515.85742	-682.15131	-496.54434	952.08673	-845.29523	-518.58594	1173.7296	-578.63776	-344.32553	970.53491	-212.93469	-371.32388	1056.8893	-206.20403	-355.83957	863.66406	175.22466	-373.57278	958.55133	201.49133
907	4.525	-558.75092	115.11947	-737.35608	-556.57812	119.13048	-682.38049	-399.77704	533.7077	-777.12671	-407.36929	515.01782	-682.22321	-494.07239	953.07745	-845.64447	-521.61664	1173.6975	-577.28705	-343.82382	966.72937	-213.64442	-372.91653	1052.8794	-206.38974	-361.74597	853.18103	173.61984	-378.49802	946.72125	200.16437
908	4.53	-558.36292	114.93236	-738.52838	-557.03894	118.80199	-683.28754	-399.41727	532.90137	-777.33215	-407.48904	514.15863	-682.1864	-491.48495	953.8493	-846.00067	-524.7171	1173.413	-576.35034	-342.92401	962.57251	-214.75969	-373.55579	1048.6387	-206.85866	-366.58237	840.97626	170.06329	-384.5694	934.78265	198.68864
909	4.535	-558.08508	114.68597	-739.56262	-557.21564	118.78357	-683.86786	-399.216	531.92126	-777.19226	-407.75235	513.29572	-682.13385	-488.92062	954.34424	-845.77539	-527.91791	1173.4913	-575.46564	-341.99887	958.09827	-216.02251	-372.82019	1044.2378	-207.55794	-372.43658	829.37616	166.34949	-391.74445	922.34656	196.65512
910	4.54	-557.91852	114.44894	-740.35425	-557.40198	118.68477	-684.35461	-398.72006	530.98816	-777.1015	-408.24091	512.48297	-681.95667	-486.17554	954.70447	-845.57849	-531.15161	1173.4741	-575.05548	-341.03766	953.45062	-217.13519	-370.8573	1039.823	-208.4192	-379.50116	817.46948	162.58151	-399.43942	909.73914	194.01425
911	4.545	-557.83521	114.22002	-740.99634	-557.33032	116.94027	-686.98907	-398.15604	529.93378	-776.84808	-408.81	511.75595	-681.70941	-483.46884	954.93793	-845.06042	-534.28699	1173.2913	-574.96393	-339.9935	948.48816	-218.00551	-368.30377	1035.4601	-209.40482	-386.40103	805.36444	157.66042	-407.70825	896.12042	190.66223
912	4.55	-557.7171	113.62937	-740.91797	-557.75806	118.21244	-684.71655	-397.151	529.37109	-776.52118	-409.48746	511.15079	-681.37793	-481.10406	954.71509	-844.18011	-537.14355	1172.8037	-575.01715	-338.49155	943.52094	-218.84074	-366.18777	1031.0576	-210.23311	-394.05377	791.56445	152.12651	-416.53653	882.27991	186.92055
913	4.555	-557.9577	113.24377	-740.92981	-557.74805	116.05286	-687.40088	-395.62909	529.46936	-776.23944	-410.35526	510.66269	-680.91144	-478.75909	954.36359	-843.10748	-539.86523	1171.9526	-575.15784	-336.92499	938.93549	-219.99001	-365.13776	1026.6646	-210.77303	-402.4754	778.073	146.21321	-425.73236	867.77985	182.40248
914	4.56	-558.27588	112.76748	-740.69061	-557.99689	115.92886	-686.70844	-395.17072	528.7392	-775.59332	-410.94394	510.30017	-680.52197	-476.19611	954.35626	-842.13837	-542.38898	1170.9707	-575.26892	-335.23947	934.54962	-221.26109	-364.87527	1022.3369	-211.11212	-410.14426	764.31982	138.72467	-435.03497	852.83313	176.99294
915	4.565	-558.69189	112.21515	-740.38867	-558.20709	115.96056	-685.84601	-393.89944	529.02521	-775.41046	-411.69757	510.12958	-680.21191	-474.35428	953.70599	-841.01691	-544.51501	1169.9246	-575.20435	-333.32196	930.59723	-222.55066	-364.95645	1018.0286	-211.44586	-417.65353	751.2066	130.33636	-444.49649	837.55127	170.60123
916	4.57	-559.125	111.66183	-739.88245	-558.82733	114.56088	-686.24792	-393.87402	528.46936	-774.79675	-412.35858	510.01907	-679.96606	-472.51505	953.21851	-839.94971	-546.28998	1168.7642	-575.11768	-331.06296	927.11438	-223.81866	-365.21597	1013.6565	-211.85913	-428.81396	736.23981	123.4224	-454.5289	822.21771	163.66774
917	4.575	-559.56073	111.03166	-739.33813	-559.16949	114.60865	-685.05847	-393.68204	528.34613	-774.42816	-412.93823	509.86542	-679.80286	-470.85852	952.73035	-839.09381	-547.93494	1167.6202	-574.94763	-329.28976	923.58447	-225.3293	-365.63797	1009.1388	-212.2619	-436.15024	722.18115	112.72183	-464.73541	806.81366	155.76404
